<svg width="1440" height="294" viewBox="0 0 1440 294" fill="none" xmlns="http://www.w3.org/2000/svg">
<rect x="1" y="1" width="1439" height="293" fill="#7E80FF" fill-opacity="0.35"/>
<rect x="1248" y="1" width="100" height="100" rx="7" fill="#7E80FF"/>
<rect x="1248" y="199" width="100" height="100" rx="7" fill="#7E80FF"/>
<rect x="1347" y="101" width="100" height="100" rx="7" fill="#7E80FF" fill-opacity="0.63"/>
<rect x="1149" y="100" width="100" height="100" rx="7" fill="white"/>
<rect x="1050" y="200" width="100" height="100" rx="7" fill="#674FF9" fill-opacity="0.49"/>
<circle cx="1298" cy="150" r="49" fill="black"/>
<circle cx="1199" cy="249" r="49" fill="white"/>
<rect x="397.513" y="199.026" width="100" height="100" rx="7" transform="rotate(90.1481 397.513 199.026)" fill="#7E80FF"/>
<rect x="199.514" y="198.514" width="100" height="100" rx="7" transform="rotate(90.1481 199.514 198.514)" fill="#7E80FF"/>
<rect x="100.773" y="98.2582" width="100" height="100" rx="7" transform="rotate(90.1481 100.773 98.2582)" fill="white"/>
<rect x="298.77" y="99.7701" width="100" height="100" rx="7" transform="rotate(90.1481 298.77 99.7701)" fill="white"/>
<rect x="199.026" y="0.511963" width="100" height="100" rx="7" transform="rotate(90.1481 199.026 0.511963)" fill="#674FF9" fill-opacity="0.49"/>
<circle cx="248.384" cy="248.64" r="49" transform="rotate(90.1481 248.384 248.64)" fill="black"/>
<circle cx="149.641" cy="149.385" r="49" transform="rotate(90.1481 149.641 149.385)" fill="white"/>
</svg>
