<?xml version="1.0" encoding="utf-8"?>
<!-- Svg Vector Icons : http://www.onlinewebfonts.com/icon -->
<!DOCTYPE svg PUBLIC "-//W3C//DTD SVG 1.1//EN" "http://www.w3.org/Graphics/SVG/1.1/DTD/svg11.dtd">
<svg version="1.1" xmlns="http://www.w3.org/2000/svg" xmlns:xlink="http://www.w3.org/1999/xlink" x="0px" y="0px" viewBox="0 0 1000 1000" enable-background="new 0 0 1000 1000" xml:space="preserve">
<metadata> Svg Vector Icons : http://www.onlinewebfonts.com/icon </metadata>
<g><g><g><path d="M680.6,388.2C680.6,186.8,516.8,23,315.4,23c-99.6,0-192.7,39.4-262.1,110.9c-1.1,1.1-2,2.5-2.8,3.9C24.4,166.7,10,203.7,10,242.6c0,86.1,70.1,156.2,156.2,156.2c26.5,0,48.1,21.6,48.1,48.1c0,13.8-5.9,26.9-16.3,36c-1,0.9-1.8,1.8-2.6,2.9c-1.2,1.1-2.4,2.1-3.5,3.2c-0.5,0.5-1.1,1-1.6,1.5c-0.2,0.3-0.5,0.5-0.7,0.8c-26.9,29-41.7,66.6-41.7,106c0,76.2,54.5,140.9,129.7,153.8c9.4,1.6,18.1,2.4,26.6,2.4c3.1,0,6.1-0.2,9.2-0.4l0-0.1c0.7,0.1,1.3,0.1,2,0.1C516.8,753.3,680.6,589.5,680.6,388.2z M310.8,717c-8.4,0.6-17.1,0.2-27-1.5c-57.6-9.9-99.4-59.5-99.4-118c0-30.5,11.6-59.6,32.6-82c0.1-0.1,0.1-0.1,0.2-0.2c0.9-1,1.9-1.8,2.9-2.7l2.8-2.5c0.9-0.9,1.7-1.8,2.4-2.8c16.2-15.9,25.4-37.6,25.4-60.4c0-46.6-37.9-84.5-84.5-84.5c-66.1,0-119.8-53.8-119.8-119.8c0-30.9,11.8-60.3,33.3-82.8c1-1,1.8-2.2,2.5-3.5c62.2-62.6,144.8-97,233.2-97c181.3,0,328.7,147.5,328.7,328.8c0,180.3-145.9,327.2-325.9,328.8c-1.4-0.2-2.8-0.3-4.3-0.2C314,716.7,310.9,717,310.8,717z"/><path d="M173.3,145.8c-34.3,0-62.2,27.9-62.2,62.2c0,34.3,27.9,62.2,62.2,62.2c34.3,0,62.2-27.9,62.2-62.2C235.4,173.7,207.5,145.8,173.3,145.8z M173.3,233.8c-14.2,0-25.8-11.6-25.8-25.8c0-14.2,11.6-25.8,25.8-25.8c14.2,0,25.8,11.6,25.8,25.8C199,222.2,187.5,233.8,173.3,233.8z"/><path d="M330.6,226.2c34.3,0,62.2-27.9,62.2-62.2c0-34.3-27.9-62.2-62.2-62.2c-34.3,0-62.2,27.9-62.2,62.2C268.4,198.3,296.3,226.2,330.6,226.2z M330.6,138.2c14.2,0,25.8,11.6,25.8,25.8c0,14.2-11.6,25.8-25.8,25.8c-14.2,0-25.8-11.6-25.8-25.8C304.8,149.8,316.3,138.2,330.6,138.2z"/><path d="M487.3,270.2c34.3,0,62.2-27.9,62.2-62.2c0-34.3-27.9-62.2-62.2-62.2c-34.3,0-62.2,27.9-62.2,62.2C425.1,242.3,453,270.2,487.3,270.2z M487.3,182.2c14.2,0,25.8,11.6,25.8,25.8c0,14.2-11.6,25.8-25.8,25.8c-14.2,0-25.8-11.6-25.8-25.8C461.5,193.7,473.1,182.2,487.3,182.2z"/><path d="M469.1,363.2c0,34.3,27.9,62.2,62.2,62.2c34.3,0,62.2-27.9,62.2-62.2c0-34.3-27.9-62.2-62.2-62.2C497,301,469.1,328.9,469.1,363.2z M557.1,363.2c0,14.2-11.6,25.8-25.8,25.8c-14.2,0-25.8-11.6-25.8-25.8c0-14.2,11.6-25.8,25.8-25.8C545.5,337.5,557.1,349,557.1,363.2z"/><path d="M487.3,586.7c34.3,0,62.2-27.9,62.2-62.2c0-34.3-27.9-62.2-62.2-62.2c-34.3,0-62.2,27.9-62.2,62.2C425.1,558.8,453,586.7,487.3,586.7z M487.3,498.7c14.2,0,25.8,11.6,25.8,25.8c0,14.2-11.6,25.8-25.8,25.8c-14.2,0-25.8-11.6-25.8-25.8C461.5,510.3,473.1,498.7,487.3,498.7z"/><path d="M273.8,523.5c-34.3,0-62.2,32.6-62.2,72.8c0,40.1,27.9,72.8,62.2,72.8c34.3,0,62.2-32.7,62.2-72.8C336,556.1,308.1,523.5,273.8,523.5z M273.8,632.6c-14,0-25.8-16.7-25.8-36.4c0-19.7,11.8-36.4,25.8-36.4c14,0,25.8,16.7,25.8,36.4C299.6,616,287.8,632.6,273.8,632.6z"/><path d="M984.7,340.7c-4.2-4.2-10.3-6.1-16.1-5l-41.3,7.5c-3.4,0.6-6.5,2.2-9.1,4.5L595.9,644.3c-3.7,3.4-5.8,8.1-5.9,13c0,0.2,0.1,0.4,0.1,0.6c-0.4,0-0.7-0.2-1.1-0.2c-5.1,0.3-10,2.7-13.2,6.8L472.2,793.8c-3.1,3.9-4.2,8.7-3.8,13.3c-8-2.8-16.4-4.6-25.1-4.6c-20.7,0-40.2,8.2-54.8,23c-10.1,10.2-23.7,53.8-40.4,129.4c-1.3,6.1,0.5,12.4,4.9,16.8c3.4,3.4,8.1,5.3,12.9,5.3c1.3,0,2.7-0.2,4-0.4l81.5-18.3c5.4-1.3,33.2-8.7,46.7-22.4c21.2-21.5,27.1-52.4,18.4-79.4c1.2,0.2,2.4,0.7,3.7,0.7c4,0,8-1.3,11.4-4l129.3-103.5c4-3.3,6.5-8.1,6.8-13.2c0-0.4-0.2-0.7-0.2-1.1c0.1,0,0.1,0,0.2,0c0.1,0,0.3,0,0.4,0c4.9-0.1,9.7-2.2,13-5.9l296.6-322.3c2.3-2.5,3.9-5.7,4.5-9.1l7.5-41.3C990.8,351,988.9,344.9,984.7,340.7z M472.3,910.2c-4.1,4.2-18.6,10-29.2,12.6l-52.9,11.9c9.4-39.1,20-77,24.3-83.6c7.7-7.8,18-12.1,28.9-12.1c10.9,0,21.2,4.3,28.9,12.1C488.4,867.4,488.4,893.9,472.3,910.2z M521.6,814.5l-10.7-10.7l80.6-100.7l30.7,30.8L521.6,814.5z M947.3,386.5L667.2,690.9l-32.7-32.7l304.5-280.1l10.3-1.9L947.3,386.5z"/></g></g><g></g><g></g><g></g><g></g><g></g><g></g><g></g><g></g><g></g><g></g><g></g><g></g><g></g><g></g><g></g></g>
</svg>